<svg xmlns="http://www.w3.org/2000/svg" width="900" height="540" viewBox="0 0 900 540" role="img">
<style>
text { font-family: Arial, Helvetica, sans-serif; fill: #212529; }
.title { font-size: 22px; font-weight: 700; }
.subtitle { font-size: 12px; fill: #495057; }
.axis { stroke: #495057; stroke-width: 1; }
.grid { stroke: #e9ecef; stroke-width: 1; }
.label { font-size: 12px; }
.tick { font-size: 11px; fill: #495057; }
</style>
<text class="title" x="450.0" y="34" text-anchor="middle">Cross-Validation ROC-AUC by Model</text>
<text class="subtitle" x="450.0" y="56" text-anchor="middle">Bars show five-fold mean; error bars show standard deviation.</text>
<line class="axis" x1="90" y1="80" x2="90" y2="420"/>
<line class="axis" x1="90" y1="420" x2="840" y2="420"/>
<line class="grid" x1="90" y1="420.0" x2="840" y2="420.0"/>
<text class="tick" x="78" y="424.0" text-anchor="end">0.75</text>
<line class="grid" x1="90" y1="352.0" x2="840" y2="352.0"/>
<text class="tick" x="78" y="356.0" text-anchor="end">0.80</text>
<line class="grid" x1="90" y1="284.0" x2="840" y2="284.0"/>
<text class="tick" x="78" y="288.0" text-anchor="end">0.85</text>
<line class="grid" x1="90" y1="216.0" x2="840" y2="216.0"/>
<text class="tick" x="78" y="220.0" text-anchor="end">0.90</text>
<line class="grid" x1="90" y1="148.0" x2="840" y2="148.0"/>
<text class="tick" x="78" y="152.0" text-anchor="end">0.95</text>
<line class="grid" x1="90" y1="80.0" x2="840" y2="80.0"/>
<text class="tick" x="78" y="84.0" text-anchor="end">1.00</text>
<rect x="118.0" y="119.0" width="92.3" height="301.0" fill="#2f6fbd" rx="3"/>
<line x1="164.2" y1="104.6" x2="164.2" y2="133.5" stroke="#212529" stroke-width="1.5"/>
<line x1="156.2" y1="104.6" x2="172.2" y2="104.6" stroke="#212529" stroke-width="1.5"/>
<line x1="156.2" y1="133.5" x2="172.2" y2="133.5" stroke="#212529" stroke-width="1.5"/>
<text class="label" x="164.2" y="109.0" text-anchor="middle">0.971</text>
<text class="tick" x="164.2" y="444" text-anchor="middle">Random Forest</text>
<rect x="238.3" y="123.7" width="92.3" height="296.3" fill="#2f6fbd" rx="3"/>
<line x1="284.5" y1="111.7" x2="284.5" y2="135.6" stroke="#212529" stroke-width="1.5"/>
<line x1="276.5" y1="111.7" x2="292.5" y2="111.7" stroke="#212529" stroke-width="1.5"/>
<line x1="276.5" y1="135.6" x2="292.5" y2="135.6" stroke="#212529" stroke-width="1.5"/>
<text class="label" x="284.5" y="113.7" text-anchor="middle">0.968</text>
<text class="tick" x="284.5" y="444" text-anchor="middle">XGBoost</text>
<rect x="358.7" y="139.9" width="92.3" height="280.1" fill="#2f6fbd" rx="3"/>
<line x1="404.8" y1="117.7" x2="404.8" y2="162.0" stroke="#212529" stroke-width="1.5"/>
<line x1="396.8" y1="117.7" x2="412.8" y2="117.7" stroke="#212529" stroke-width="1.5"/>
<line x1="396.8" y1="162.0" x2="412.8" y2="162.0" stroke="#212529" stroke-width="1.5"/>
<text class="label" x="404.8" y="129.9" text-anchor="middle">0.956</text>
<text class="tick" x="404.8" y="444" text-anchor="middle">SVM RBF</text>
<rect x="479.0" y="160.2" width="92.3" height="259.8" fill="#2f6fbd" rx="3"/>
<line x1="525.2" y1="137.7" x2="525.2" y2="182.7" stroke="#212529" stroke-width="1.5"/>
<line x1="517.2" y1="137.7" x2="533.2" y2="137.7" stroke="#212529" stroke-width="1.5"/>
<line x1="517.2" y1="182.7" x2="533.2" y2="182.7" stroke="#212529" stroke-width="1.5"/>
<text class="label" x="525.2" y="150.2" text-anchor="middle">0.941</text>
<text class="tick" x="525.2" y="444" text-anchor="middle">Logistic Regression</text>
<rect x="599.3" y="275.1" width="92.3" height="144.9" fill="#2f6fbd" rx="3"/>
<line x1="645.5" y1="244.4" x2="645.5" y2="305.9" stroke="#212529" stroke-width="1.5"/>
<line x1="637.5" y1="244.4" x2="653.5" y2="244.4" stroke="#212529" stroke-width="1.5"/>
<line x1="637.5" y1="305.9" x2="653.5" y2="305.9" stroke="#212529" stroke-width="1.5"/>
<text class="label" x="645.5" y="265.1" text-anchor="middle">0.857</text>
<text class="tick" x="645.5" y="444" text-anchor="middle">Decision Tree</text>
<rect x="719.7" y="354.8" width="92.3" height="65.2" fill="#2f6fbd" rx="3"/>
<line x1="765.8" y1="312.3" x2="765.8" y2="397.3" stroke="#212529" stroke-width="1.5"/>
<line x1="757.8" y1="312.3" x2="773.8" y2="312.3" stroke="#212529" stroke-width="1.5"/>
<line x1="757.8" y1="397.3" x2="773.8" y2="397.3" stroke="#212529" stroke-width="1.5"/>
<text class="label" x="765.8" y="344.8" text-anchor="middle">0.798</text>
<text class="tick" x="765.8" y="444" text-anchor="middle">Naive Bayes</text>
</svg>
