<svg xmlns="http://www.w3.org/2000/svg" width="900" height="540" viewBox="0 0 900 540" role="img">
<style>
text { font-family: Arial, Helvetica, sans-serif; fill: #212529; }
.title { font-size: 22px; font-weight: 700; }
.subtitle { font-size: 12px; fill: #495057; }
.axis { stroke: #495057; stroke-width: 1; }
.grid { stroke: #e9ecef; stroke-width: 1; }
.label { font-size: 12px; }
.tick { font-size: 11px; fill: #495057; }
</style>
<text class="title" x="450.0" y="34" text-anchor="middle">Cross-Validation ROC-AUC by Model</text>
<text class="subtitle" x="450.0" y="56" text-anchor="middle">Bars show five-fold mean; error bars show standard deviation.</text>
<line class="axis" x1="90" y1="80" x2="90" y2="420"/>
<line class="axis" x1="90" y1="420" x2="840" y2="420"/>
<line class="grid" x1="90" y1="420.0" x2="840" y2="420.0"/>
<text class="tick" x="78" y="424.0" text-anchor="end">0.75</text>
<line class="grid" x1="90" y1="352.0" x2="840" y2="352.0"/>
<text class="tick" x="78" y="356.0" text-anchor="end">0.80</text>
<line class="grid" x1="90" y1="284.0" x2="840" y2="284.0"/>
<text class="tick" x="78" y="288.0" text-anchor="end">0.85</text>
<line class="grid" x1="90" y1="216.0" x2="840" y2="216.0"/>
<text class="tick" x="78" y="220.0" text-anchor="end">0.90</text>
<line class="grid" x1="90" y1="148.0" x2="840" y2="148.0"/>
<text class="tick" x="78" y="152.0" text-anchor="end">0.95</text>
<line class="grid" x1="90" y1="80.0" x2="840" y2="80.0"/>
<text class="tick" x="78" y="84.0" text-anchor="end">1.00</text>
<rect x="118.0" y="120.2" width="92.3" height="299.8" fill="#2f6fbd" rx="3"/>
<line x1="164.2" y1="105.4" x2="164.2" y2="135.1" stroke="#212529" stroke-width="1.5"/>
<line x1="156.2" y1="105.4" x2="172.2" y2="105.4" stroke="#212529" stroke-width="1.5"/>
<line x1="156.2" y1="135.1" x2="172.2" y2="135.1" stroke="#212529" stroke-width="1.5"/>
<text class="label" x="164.2" y="110.2" text-anchor="middle">0.970</text>
<text class="tick" x="164.2" y="444" text-anchor="middle">Random Forest</text>
<rect x="238.3" y="124.2" width="92.3" height="295.8" fill="#2f6fbd" rx="3"/>
<line x1="284.5" y1="113.1" x2="284.5" y2="135.2" stroke="#212529" stroke-width="1.5"/>
<line x1="276.5" y1="113.1" x2="292.5" y2="113.1" stroke="#212529" stroke-width="1.5"/>
<line x1="276.5" y1="135.2" x2="292.5" y2="135.2" stroke="#212529" stroke-width="1.5"/>
<text class="label" x="284.5" y="114.2" text-anchor="middle">0.968</text>
<text class="tick" x="284.5" y="444" text-anchor="middle">XGBoost</text>
<rect x="358.7" y="144.7" width="92.3" height="275.3" fill="#2f6fbd" rx="3"/>
<line x1="404.8" y1="125.4" x2="404.8" y2="164.0" stroke="#212529" stroke-width="1.5"/>
<line x1="396.8" y1="125.4" x2="412.8" y2="125.4" stroke="#212529" stroke-width="1.5"/>
<line x1="396.8" y1="164.0" x2="412.8" y2="164.0" stroke="#212529" stroke-width="1.5"/>
<text class="label" x="404.8" y="134.7" text-anchor="middle">0.952</text>
<text class="tick" x="404.8" y="444" text-anchor="middle">SVM RBF</text>
<rect x="479.0" y="158.5" width="92.3" height="261.5" fill="#2f6fbd" rx="3"/>
<line x1="525.2" y1="123.4" x2="525.2" y2="193.6" stroke="#212529" stroke-width="1.5"/>
<line x1="517.2" y1="123.4" x2="533.2" y2="123.4" stroke="#212529" stroke-width="1.5"/>
<line x1="517.2" y1="193.6" x2="533.2" y2="193.6" stroke="#212529" stroke-width="1.5"/>
<text class="label" x="525.2" y="148.5" text-anchor="middle">0.942</text>
<text class="tick" x="525.2" y="444" text-anchor="middle">Logistic Regression</text>
<rect x="599.3" y="252.2" width="92.3" height="167.8" fill="#2f6fbd" rx="3"/>
<line x1="645.5" y1="222.8" x2="645.5" y2="281.6" stroke="#212529" stroke-width="1.5"/>
<line x1="637.5" y1="222.8" x2="653.5" y2="222.8" stroke="#212529" stroke-width="1.5"/>
<line x1="637.5" y1="281.6" x2="653.5" y2="281.6" stroke="#212529" stroke-width="1.5"/>
<text class="label" x="645.5" y="242.2" text-anchor="middle">0.873</text>
<text class="tick" x="645.5" y="444" text-anchor="middle">Decision Tree</text>
<rect x="719.7" y="358.0" width="92.3" height="62.0" fill="#2f6fbd" rx="3"/>
<line x1="765.8" y1="324.5" x2="765.8" y2="391.5" stroke="#212529" stroke-width="1.5"/>
<line x1="757.8" y1="324.5" x2="773.8" y2="324.5" stroke="#212529" stroke-width="1.5"/>
<line x1="757.8" y1="391.5" x2="773.8" y2="391.5" stroke="#212529" stroke-width="1.5"/>
<text class="label" x="765.8" y="348.0" text-anchor="middle">0.796</text>
<text class="tick" x="765.8" y="444" text-anchor="middle">Naive Bayes</text>
</svg>
